<svg xmlns="http://www.w3.org/2000/svg" viewBox="0 0 24 24" role="img" aria-labelledby="whatsappTitle">
  <title id="whatsappTitle">WhatsApp</title>
  <path fill="#25D366" d="M20.52 3.48A11.52 11.52 0 0 0 1.98 16.98L0 24l7.3-2.03A11.9 11.9 0 0 0 12.1 24c6.42 0 11.68-5.24 11.68-11.68a11.54 11.54 0 0 0-3.26-8.84z" />
  <path fill="#FFF" d="M17.47 14.38c-.3-.15-1.75-.86-2.02-.97-.27-.1-.46-.15-.66.15-.2.3-.76.97-.93 1.16-.17.2-.34.22-.64.08-.3-.15-1.25-.46-2.38-1.47-.88-.78-1.48-1.75-1.65-2.05-.17-.3-.02-.46.13-.61.13-.13.3-.35.45-.52.15-.17.2-.3.3-.5.1-.2.05-.37-.02-.52-.08-.15-.66-1.6-.91-2.19-.24-.58-.48-.5-.66-.51l-.56-.01c-.2 0-.52.07-.79.37s-1.04 1.01-1.04 2.48 1.07 2.88 1.21 3.07c.15.2 2.09 3.2 5.08 4.49.71.31 1.26.49 1.69.63.71.23 1.36.2 1.87.12.57-.09 1.75-.72 2-1.41.25-.69.25-1.28.17-1.41-.08-.13-.27-.2-.56-.35z" />
</svg>
