<svg xmlns="http://www.w3.org/2000/svg" viewBox="0 0 120 120" role="img" aria-labelledby="whatsappTitle">
  <title id="whatsappTitle">WhatsApp</title>
  <circle cx="60" cy="60" r="58" fill="#13c653" />
  <path
    d="M31.5 90.5 36 74.8A32.5 32.5 0 1 1 48 86.6L31.5 90.5Z"
    fill="none"
    stroke="#ffffff"
    stroke-linecap="round"
    stroke-linejoin="round"
    stroke-width="8"
  />
  <path
    d="M49.7 42.5c-1.4-3-3-3.1-4.3-3.1-1.1 0-2.4 0-3.6.1-1.3.1-3.3.5-5 2.4-1.7 1.9-6.5 6.3-6.5 15.4 0 9.1 6.7 17.9 7.6 19.1.9 1.2 12.9 20.7 32.2 28.1 15.9 6.1 19.2 4.9 22.7 4.6 3.5-.3 11.2-4.6 12.8-9 1.6-4.4 1.6-8.1 1.1-9-.5-.9-1.8-1.4-3.7-2.4-1.9-.9-11.2-5.5-13-6.1-1.7-.7-3-.9-4.3.9-1.3 1.9-4.9 6.1-6 7.4-1.1 1.3-2.2 1.4-4.1.5-1.9-.9-8-3-15.3-9.5-5.7-5.1-9.5-11.3-10.6-13.2-1.1-1.9-.1-2.9.8-3.8.8-.8 1.9-2.2 2.8-3.3.9-1.1 1.3-1.9 1.9-3.2.6-1.3.3-2.4-.1-3.3-.5-.9-4.2-10.4-5.4-13.6Z"
    fill="#ffffff"
    transform="translate(11 3) scale(.72)"
  />
</svg>
